<svg xmlns="http://www.w3.org/2000/svg" viewBox="0 0 1200 460" fill="none">
  <defs>
    <linearGradient id="sky" x1="900" y1="0" x2="900" y2="460" gradientUnits="userSpaceOnUse"><stop stop-color="#e9eddf"/><stop offset=".65" stop-color="#dce2d2"/><stop offset="1" stop-color="#a2b5a0"/></linearGradient>
    <linearGradient id="fade" x1="250" y1="220" x2="750" y2="220" gradientUnits="userSpaceOnUse"><stop stop-color="#edf0e7"/><stop offset=".43" stop-color="#edf0e7" stop-opacity=".96"/><stop offset="1" stop-color="#edf0e7" stop-opacity="0"/></linearGradient>
    <linearGradient id="mountain" x1="980" y1="155" x2="980" y2="460" gradientUnits="userSpaceOnUse"><stop stop-color="#758f77"/><stop offset="1" stop-color="#395b47"/></linearGradient>
    <linearGradient id="front" x1="1000" y1="265" x2="1000" y2="460" gradientUnits="userSpaceOnUse"><stop stop-color="#46634d"/><stop offset="1" stop-color="#213e32"/></linearGradient>
    <filter id="blur"><feGaussianBlur stdDeviation="10"/></filter>
    <pattern id="grain" width="5" height="5" patternUnits="userSpaceOnUse"><circle cx="1" cy="1" r=".5" fill="#fff" opacity=".18"/><circle cx="4" cy="4" r=".5" fill="#172d22" opacity=".08"/></pattern>
  </defs>
  <path fill="url(#sky)" d="M0 0h1200v460H0z"/>
  <circle cx="935" cy="99" r="45" fill="#f6f4df"/><circle cx="935" cy="99" r="68" fill="#f6f4df" opacity=".16"/>
  <path d="m300 264 90-45 43 18 121-91 77 50 68-49 118 78 78-80 84 66 67-68 92 80 72-54 90 39v252H300Z" fill="#b4c1ad"/>
  <path d="m399 306 154-100 51 28 70-63 113 88 88-52 69 65 94-91 52 71 63-31 47 57v182H399Z" fill="#98ad96"/>
  <path d="m592 339 85-83 76 30 136-119 94 97 78-26 75 79 64-27v170H592Z" fill="url(#mountain)"/>
  <path d="m888 168 16 35 18 14 26 38 35 10-27-30-21-28-22-12Z" fill="#b8c4a8" opacity=".3"/>
  <path d="M363 362c171-91 244-5 358-53 133-56 208 30 338-18 53-19 124-1 156 27v142H363Z" fill="#d1dcc7" opacity=".35" filter="url(#blur)"/>
  <path d="M592 460c109-88 171-52 252-109 56-40 96-27 135-21 70 12 127-35 221-22v152Z" fill="url(#front)"/>
  <path d="M791 460c129-109 245-19 409-77v77Z" fill="#254336"/>
  <g stroke="#324e3c" stroke-width="2" opacity=".65"><path d="M1143 342v-90m-18 43 18-37 19 37m-33 21 14-34 15 34m-12 26v-60m-12 30 12-26 12 26M1089 345v-60m-13 25 13-27 13 27m-25 17 12-28 13 28"/></g>
  <g stroke="#66785b" stroke-width="1.5" stroke-linecap="round" opacity=".6"><path d="m1037 80 5-3 5 3m12 18 4-3 4 3m-28 11 3-2 3 2"/></g>
  <path fill="url(#fade)" d="M0 0h1200v460H0z"/>
  <path fill="url(#grain)" d="M0 0h1200v460H0z"/>
</svg>
